<svg width="146" height="45" viewBox="0 0 146 45" fill="none" xmlns="http://www.w3.org/2000/svg">
<path d="M45.9847 45.0002H43.0291C42.9963 44.4896 42.8709 44.0358 42.9575 43.6238C43.468 41.1427 42.2559 39.9604 40.0945 38.9334C35.5685 36.7807 31.174 34.3475 26.7645 31.956C25.7733 31.4186 24.9971 31.4723 24.0268 31.944C16.7483 35.485 9.44892 38.9782 2.15549 42.4863C1.89277 42.6117 1.62408 42.7281 1.19418 42.9252C0.806069 42.1519 0.43886 41.4204 0 40.5456C1.1882 39.9365 2.28684 39.2588 3.47206 38.802C4.58861 38.3721 5.03942 37.7123 4.83044 36.5568C4.54981 35.0192 5.2066 34.2191 6.63961 33.5294C12.503 30.705 18.3007 27.7462 24.0895 24.7726C25.0866 24.262 25.8569 24.268 26.8331 24.7875C30.6455 26.8177 34.5027 28.7703 38.345 30.7468C38.7719 30.9677 39.2137 31.1528 39.8377 31.4424C39.8377 27.1641 39.9332 23.0887 39.7899 19.0223C39.7302 17.3682 40.2407 16.4696 41.7424 15.8754C43.1486 15.3201 44.4711 14.5498 45.9907 13.7944V44.9972L45.9847 45.0002Z" fill="black" style="fill:black;fill-opacity:1;"/>
<path d="M49.7196 1.98245C50.1257 2.83634 50.466 3.54393 50.869 4.38887C49.7286 4.96211 48.6479 5.55923 47.5224 6.05186C46.4625 6.51761 45.8117 7.1446 46.0625 8.40453C46.373 9.95705 45.6445 10.7333 44.2324 11.417C38.378 14.2444 32.5862 17.2002 26.7974 20.1589C25.872 20.6336 25.1495 20.6934 24.1882 20.1828C20.2026 18.057 16.1663 16.0298 12.1449 13.9727C11.8493 13.8204 11.5299 13.7219 11.0612 13.5338C11.0612 17.9496 11.0164 22.219 11.091 26.4884C11.1119 27.6499 10.7925 28.2918 9.69386 28.7515C8.10859 29.4144 6.60095 30.2653 4.9082 31.1102V0H7.95036C7.95036 1.13155 7.84587 2.22429 7.99216 3.28419C8.06978 3.85742 8.43698 4.62174 8.90271 4.87552C14.1004 7.68201 19.3279 10.4288 24.5882 13.1188C25.0868 13.3726 25.9346 13.3338 26.4571 13.089C33.5027 9.76 40.5155 6.37132 47.5403 2.99757C48.206 2.6781 48.8777 2.37357 49.7196 1.98245Z" fill="black" style="fill:black;fill-opacity:1;"/>
<path d="M127.701 9.75537V21.6563H124.577V15.1816C124.533 15.1604 124.488 15.1381 124.443 15.1169C122.811 17.2505 121.18 19.3829 119.515 21.5587C117.84 19.3688 116.213 17.2422 114.479 14.9711V21.6422H111.333V9.75772C112.319 9.75772 113.283 9.74009 114.246 9.77536C114.406 9.78123 114.593 9.99165 114.71 10.1515C116.153 12.117 117.585 14.0907 119.021 16.0608C119.169 16.2642 119.32 16.4664 119.51 16.7262C119.867 16.2442 120.204 15.7975 120.535 15.345C121.798 13.6111 123.066 11.8795 124.314 10.1339C124.52 9.84589 124.733 9.73774 125.08 9.74714C125.93 9.77183 126.781 9.75537 127.701 9.75537Z" fill="black" style="fill:black;fill-opacity:1;"/>
<path d="M73.7729 15.0899C72.1416 17.2247 70.5103 19.3606 68.83 21.56C67.1685 19.3876 65.5348 17.2529 63.9012 15.1181C63.8593 15.1322 63.8173 15.1475 63.7754 15.1616V21.6669H60.6514V9.76012C61.626 9.76012 62.6075 9.74249 63.5868 9.77893C63.744 9.78481 63.9221 10.0117 64.0409 10.1739C65.5174 12.1887 66.9845 14.2095 68.4551 16.229C68.5681 16.3842 68.6892 16.5346 68.8359 16.7274C70.0527 15.0582 71.2462 13.4195 72.4397 11.782C72.4513 11.7667 72.4606 11.7491 72.4723 11.7338C72.9648 11.0826 73.4585 10.4313 73.9522 9.78128H77.0087V21.6646H73.8986V15.1322C73.8567 15.1193 73.8136 15.1052 73.7717 15.0923L73.7729 15.0899Z" fill="black" style="fill:black;fill-opacity:1;"/>
<path d="M92.3773 9.79219V12.3783H82.2878V14.4837H90.5154V16.9076H82.3041V19.0329H92.3691V21.6661H79.1626V9.79102H92.3784L92.3773 9.79219Z" fill="black" style="fill:black;fill-opacity:1;"/>
<path d="M129.066 21.6966C129.661 20.5928 130.193 19.5994 130.731 18.6097C132.26 15.7955 133.796 12.9872 135.313 10.1659C135.483 9.85088 135.664 9.70864 136.027 9.7204C136.841 9.74626 137.658 9.70747 138.471 9.74391C138.678 9.75331 138.972 9.89437 139.065 10.0636C141.132 13.8288 143.175 17.6058 145.221 21.3815C145.256 21.4462 145.275 21.5214 145.335 21.6836C144.206 21.6836 143.132 21.693 142.06 21.6695C141.956 21.6672 141.83 21.4838 141.759 21.358C141.443 20.7973 141.165 20.2119 140.822 19.6688C140.714 19.496 140.449 19.3244 140.254 19.322C138.236 19.2973 136.217 19.2973 134.199 19.322C134.004 19.3244 133.74 19.4925 133.633 19.6629C133.29 20.206 133.021 20.7961 132.689 21.3474C132.596 21.5014 132.386 21.6754 132.225 21.6801C131.219 21.7107 130.212 21.6954 129.064 21.6954L129.066 21.6966ZM137.225 12.9825C136.522 14.292 135.877 15.4898 135.205 16.7394H139.251C138.571 15.4793 137.93 14.2908 137.224 12.9825H137.225Z" fill="black" style="fill:black;fill-opacity:1;"/>
<path d="M93.7385 21.6968C94.2648 20.7199 94.7329 19.8489 95.2044 18.9801C96.7868 16.0672 98.3774 13.1578 99.9447 10.2367C100.146 9.86049 100.365 9.69944 100.797 9.71942C101.59 9.75586 102.388 9.71119 103.181 9.74411C103.369 9.75234 103.637 9.88752 103.723 10.0462C105.796 13.8255 107.849 17.6154 109.903 21.4041C109.937 21.4675 109.95 21.5428 109.998 21.6909C108.89 21.6909 107.831 21.7015 106.774 21.6756C106.654 21.6721 106.507 21.4781 106.427 21.3406C106.116 20.7998 105.852 20.2297 105.515 19.7066C105.395 19.5209 105.119 19.3281 104.912 19.3257C102.896 19.2975 100.88 19.2987 98.8641 19.3246C98.6708 19.3269 98.41 19.5021 98.3029 19.6749C97.9617 20.2191 97.6962 20.8104 97.3632 21.3594C97.2701 21.5134 97.0523 21.678 96.887 21.6827C95.8809 21.712 94.8737 21.6979 93.7373 21.6979L93.7385 21.6968ZM103.937 16.7514C103.239 15.4618 102.591 14.2663 101.899 12.9885C101.205 14.2757 100.556 15.4795 99.8701 16.7514H103.937Z" fill="black" style="fill:black;fill-opacity:1;"/>
<path d="M70.0344 28.9552C69.6305 28.9796 69.2464 29.0029 68.8276 29.0286C68.7795 28.8768 68.735 28.7471 68.698 28.6161C68.2447 27.0003 67.2034 26.1434 65.6323 26.0969C64.1094 26.0516 62.8211 26.9415 62.3592 28.4765C61.8503 30.1682 61.9306 31.8281 63.2436 33.1611C64.9579 34.9018 67.9581 34.1025 68.6374 31.7779C68.6893 31.6016 68.735 31.4242 68.8042 31.1695C69.2068 31.2026 69.6206 31.2356 70.0307 31.2699C69.9887 33.3154 68.4719 34.9263 66.3734 35.2262C63.8068 35.5922 61.5403 34.1526 60.8807 31.74C60.1162 28.9405 61.313 26.1422 63.7253 25.2437C66.1881 24.3269 69.5947 25.1397 70.0665 28.7483C70.0714 28.785 70.0541 28.8254 70.0319 28.9576L70.0344 28.9552Z" fill="black" style="fill:black;fill-opacity:1;"/>
<path d="M91.847 31.9491H86.5346C86.4692 32.9553 87.1287 33.8513 88.0946 34.1243C89.1087 34.4108 90.0635 34.0472 90.5291 33.1977C90.8922 32.5342 90.996 32.5024 91.8198 32.8011C91.5518 34.5772 89.9128 35.5785 87.8637 35.1893C85.7318 34.7841 84.6486 32.7533 85.2909 30.5108C85.8738 28.4764 87.9019 27.4445 89.9016 28.1654C91.2887 28.6649 92.0409 30.086 91.847 31.9491ZM90.4908 31.0261C90.4785 29.8045 89.7423 29.0076 88.6443 28.9929C87.4956 28.9782 86.6186 29.8327 86.568 31.0261H90.4908Z" fill="black" style="fill:black;fill-opacity:1;"/>
<path d="M78.0877 31.6347C78.0766 33.8234 76.6389 35.2617 74.4774 35.2507C72.453 35.2397 71.0498 33.7194 71.0745 31.5637C71.1005 29.424 72.5357 27.9478 74.5799 27.9576C76.65 27.9674 78.0988 29.4865 78.0877 31.6335V31.6347ZM76.7167 31.6188C76.6981 31.3752 76.6969 31.1292 76.6586 30.888C76.4857 29.8145 75.7026 29.0703 74.696 29.0091C73.6609 28.9466 72.8321 29.5672 72.5518 30.6518C72.3492 31.4389 72.3677 32.2272 72.695 32.9837C73.0347 33.7695 73.6375 34.2017 74.5082 34.2237C75.4025 34.2469 76.0658 33.8405 76.4178 33.0388C76.6092 32.6018 76.7377 31.6249 76.7154 31.6176L76.7167 31.6188Z" fill="black" style="fill:black;fill-opacity:1;"/>
<path d="M99.533 31.0098C99.0994 31.0355 98.7771 31.0539 98.4386 31.0735C98.3794 30.8605 98.3349 30.6842 98.2818 30.5104C98.0162 29.6254 97.3777 29.1137 96.4488 29.0378C95.6089 28.9692 94.8283 29.4136 94.459 30.2129C94.0354 31.131 94.0366 32.0699 94.4454 32.994C94.7974 33.7897 95.5682 34.2438 96.4179 34.1961C97.306 34.1447 97.9557 33.6502 98.246 32.797C98.3164 32.5889 98.3707 32.3759 98.4436 32.1286C98.8154 32.1592 99.1563 32.1874 99.4897 32.2143C99.5923 33.6893 98.3843 35.0689 96.8885 35.2354C95.2717 35.4153 93.8834 34.8326 93.2671 33.5792C92.5433 32.1078 92.5482 30.5997 93.5438 29.2398C94.4269 28.0328 95.7324 27.7745 97.1319 28.0426C98.4683 28.2984 99.2032 29.203 99.4922 30.4883C99.5256 30.6389 99.5169 30.798 99.5305 31.0086L99.533 31.0098Z" fill="black" style="fill:black;fill-opacity:1;"/>
<path d="M101.669 26.2744H102.409V28.1289H104.319V29.1106H102.423C102.423 30.0103 102.423 30.8403 102.423 31.6702C102.423 32.1806 102.417 32.6899 102.425 33.2003C102.438 34.0241 102.793 34.3081 103.603 34.1282C103.899 34.0621 104.186 33.9482 104.494 33.8515C104.712 34.4293 104.575 34.8749 103.96 35.0205C103.412 35.1503 102.827 35.2507 102.273 35.2066C101.556 35.1491 101.135 34.5419 101.123 33.6961C101.103 32.4316 101.117 31.1671 101.115 29.9026C101.115 29.6798 101.115 29.457 101.115 29.1669C100.768 29.1437 100.451 29.1229 100.093 29.0996V28.3688C101.542 28.3994 101.377 27.1802 101.668 26.2744H101.669Z" fill="black" style="fill:black;fill-opacity:1;"/>
<path d="M79.4272 25.1221H80.718V35.0397H79.4272V25.1221Z" fill="black" style="fill:black;fill-opacity:1;"/>
<path d="M83.791 35.0534H82.5176V25.1786C82.5695 25.148 82.6028 25.1138 82.6374 25.1113C83.4279 25.0501 83.8231 25.4014 83.8231 26.1652C83.8231 28.8925 83.8231 31.6186 83.8219 34.3458C83.8219 34.5809 83.8021 34.8147 83.791 35.0534Z" fill="black" style="fill:black;fill-opacity:1;"/>
</svg>
